<svg xmlns="http://www.w3.org/2000/svg" width="135" height="30.122" viewBox="0 0 135 30.122"><path d="M96.042,97.013l-2.267,1.3a.222.222,0,0,0-.111.192v8.965a.067.067,0,0,0,.066.067h2.494a.473.473,0,0,0,.473-.473V97.352A.41.41,0,0,0,96.042,97.013Zm40.143-2.956a4.189,4.189,0,0,0-3.642,1.865,9.2,9.2,0,0,0-.412-1.718,5.591,5.591,0,0,0-1.486-.146,6.816,6.816,0,0,0-1.456.146v13.2a8.257,8.257,0,0,0,1.806.146,10.272,10.272,0,0,0,1.806-.146v-6.438c0-2.563,1.34-3.934,3.146-3.934a8.2,8.2,0,0,1,1.194.059,7.545,7.545,0,0,0,.059-2.913A5.173,5.173,0,0,0,136.185,94.057ZM92.456,83.993a35.2,35.2,0,0,0-5.807.5,11.032,11.032,0,0,1,8.714-4.226,11.274,11.274,0,0,1,6.978,2.449c.317.261.561.288.806.048s.219-.48-.048-.793a12.309,12.309,0,0,0-20.939,3.554,22.124,22.124,0,0,0-4.2,1.754c-.342.192-.464.432-.342.72a.534.534,0,0,0,.708.261c1.073-.312,2.172-.576,3.318-.816a9.376,9.376,0,0,0-.2,1.872,12.1,12.1,0,0,0,5.607,10.371c.342.216.635.216.829-.048s.171-.5-.123-.768a10.579,10.579,0,0,1-3.416-7.8,10.3,10.3,0,0,1,.854-4.153c1.147-.1,2.391-.168,3.758-.168,8.882,0,16.373,2.928,16.373,6.77,0,1.944-2.464,3.889-5.393,5.185-.708.312-.782.528-.683.84.1.288.415.385.782.261,5.129-1.674,9.014-4.44,9.014-7.772C109.053,87.5,101.729,83.993,92.456,83.993Zm28.638,9.941a6.483,6.483,0,0,0-2.709.554V88.021a10.748,10.748,0,0,0-3,1.631,1.5,1.5,0,0,0-.612,1.312v15.97a14.192,14.192,0,0,0,4.779.758c4.72,0,7.432-2.884,7.432-7.05C126.978,96.5,125.056,93.934,121.094,93.934Zm-1.34,10.809a4.473,4.473,0,0,1-1.369-.146V97.349a4.555,4.555,0,0,1,2.1-.408c1.806,0,2.768,1.253,2.768,3.613,0,2.476-1.137,4.2-3.5,4.2Zm-27.1-5.781-1.784,1.027a.574.574,0,0,0-.308.529v6.723a.305.305,0,0,0,.305.305h1.8a.066.066,0,0,0,.066-.067V99a.056.056,0,0,0-.083-.043Zm103.46,5.759c-1.806,0-3-1.428-3-3.934,0-2.389.961-3.934,3.03-3.934a5.706,5.706,0,0,1,2.3.467,7.713,7.713,0,0,1,1.282-2.535,8.093,8.093,0,0,0-4.05-.9c-3.991,0-6.292,2.825-6.292,6.91,0,4.225,2.36,6.91,6.438,6.91a8.181,8.181,0,0,0,3.962-.874,8.316,8.316,0,0,1-1.369-2.535,5.144,5.144,0,0,1-2.3.425Zm10.11-10.838c-4.05,0-6.322,2.768-6.322,6.934,0,4.225,2.389,6.875,6.322,6.875,4.078,0,6.351-2.709,6.351-6.875.005-4.2-2.271-6.935-6.351-6.935Zm0,10.9c-2.011,0-2.622-1.631-2.622-3.962,0-2.273.612-4.021,2.622-4.021,2.068,0,2.651,1.7,2.651,4.021,0,2.446-.669,3.961-2.651,3.961Zm-63.368-10.9a15.124,15.124,0,0,0-3.9.442,6.3,6.3,0,0,0,0,2.855,12.908,12.908,0,0,1,3.321-.378c1.865,0,2.768.758,2.768,2.3v.146c-.554-.059-1.223-.116-1.7-.116-3.089,0-5.737,1.107-5.737,4.078,0,3.351,2.389,4.487,5.856,4.487a17.814,17.814,0,0,0,5.041-.782V99.359c0-3.613-1.949-5.39-5.65-5.478Zm2.184,10.836a9.931,9.931,0,0,1-1.544.146c-1.661,0-2.563-.5-2.563-1.661s.9-1.631,2.563-1.631c.554,0,1.194.059,1.544.087Zm39.826-5.157-1.456-.612c-.845-.349-1.34-.641-1.34-1.194,0-.845.758-1.02,1.748-1.02a10.822,10.822,0,0,1,3.408.554,7.057,7.057,0,0,0,0-2.709,9.594,9.594,0,0,0-3.934-.7c-2.8,0-4.923,1.515-4.923,3.781,0,2.039.874,3.059,3.321,4.05l1.136.467c1.078.437,1.4.7,1.4,1.4,0,1.043-1.043,1.223-1.923,1.223a11.114,11.114,0,0,1-3.962-.782,5.8,5.8,0,0,0,0,2.825,9.9,9.9,0,0,0,4.545.845c2.768,0,4.982-1.456,4.982-4.078,0-2.155-.93-3.175-3-4.05Zm-13.894-5.681c-3.9,0-6.292,2.622-6.292,6.993s2.535,6.818,6.875,6.818a10.214,10.214,0,0,0,4.108-.758,6.47,6.47,0,0,0,0-2.8,13.322,13.322,0,0,1-3.729.612c-2.011,0-3.408-.758-3.7-2.884h8.214a9.061,9.061,0,0,0,.146-1.836C176.593,96.1,174.376,93.882,170.972,93.882Zm-2.738,5.331a2.678,2.678,0,0,1,2.681-2.563c1.631,0,2.273,1.107,2.331,2.563Zm-9.207-8.244v3.176a7.242,7.242,0,0,0-1.895-.211c-3.991,0-6.7,2.681-6.7,6.963,0,4.371,2.651,6.788,6.788,6.788a17.3,17.3,0,0,0,5.421-.808V88.026a10.748,10.748,0,0,0-3,1.631,1.492,1.492,0,0,0-.617,1.312Zm0,13.577a5.123,5.123,0,0,1-1.544.2c-2.389,0-3.321-1.574-3.321-3.845,0-2.535.932-4.078,3.292-4.078a5.573,5.573,0,0,1,1.574.2Z" transform="translate(-77.574 -77.581)" fill="#cc092f"/></svg>